<?xml version="1.0" encoding="UTF-8" standalone="no"?>
<!DOCTYPE svg PUBLIC "-//W3C//DTD SVG 1.1//EN"
 "http://www.w3.org/Graphics/SVG/1.1/DTD/svg11.dtd">
<!-- Generated by graphviz version 2.26.3 (20100126.1600)
 -->
<!-- Title: _anonymous_0 Pages: 1 -->
<svg width="396pt" height="332pt"
 viewBox="0.00 0.00 396.00 332.00" xmlns="http://www.w3.org/2000/svg" xmlns:xlink="http://www.w3.org/1999/xlink">
<g id="graph1" class="graph" transform="scale(1 1) rotate(0) translate(4 328)">
<title>_anonymous_0</title>
<polygon fill="white" stroke="white" points="-4,5 -4,-328 393,-328 393,5 -4,5"/>
<!-- 3,1,4 -->
<g id="node1" class="node"><title>3,1,4</title>
<ellipse fill="none" stroke="black" cx="223" cy="-306" rx="48.8383" ry="18"/>
<text text-anchor="middle" x="223" y="-301.9" font-family="Times Roman,serif" font-size="14.00">3,1,4: 0</text>
</g>
<!-- 2,3,7 -->
<g id="node2" class="node"><title>2,3,7</title>
<ellipse fill="none" stroke="black" cx="165" cy="-234" rx="48.8383" ry="18"/>
<text text-anchor="middle" x="165" y="-229.9" font-family="Times Roman,serif" font-size="14.00">2,3,7: 1</text>
</g>
<!-- 3,1,4&#45;&gt;2,3,7 -->
<g id="edge2" class="edge"><title>3,1,4&#45;&gt;2,3,7</title>
<path fill="none" stroke="black" d="M208.96,-288.571C201.836,-279.727 193.053,-268.824 185.215,-259.094"/>
<polygon fill="black" stroke="black" points="187.91,-256.861 178.911,-251.269 182.459,-261.252 187.91,-256.861"/>
</g>
<!-- 4,3,4 -->
<g id="node7" class="node"><title>4,3,4</title>
<ellipse fill="none" stroke="black" cx="281" cy="-234" rx="48.8383" ry="18"/>
<text text-anchor="middle" x="281" y="-229.9" font-family="Times Roman,serif" font-size="14.00">4,3,4: 1</text>
</g>
<!-- 3,1,4&#45;&gt;4,3,4 -->
<g id="edge12" class="edge"><title>3,1,4&#45;&gt;4,3,4</title>
<path fill="none" stroke="black" d="M237.04,-288.571C244.164,-279.727 252.947,-268.824 260.785,-259.094"/>
<polygon fill="black" stroke="black" points="263.541,-261.252 267.089,-251.269 258.09,-256.861 263.541,-261.252"/>
</g>
<!-- 2,1,3 -->
<g id="node3" class="node"><title>2,1,3</title>
<ellipse fill="none" stroke="black" cx="49" cy="-162" rx="48.8383" ry="18"/>
<text text-anchor="middle" x="49" y="-157.9" font-family="Times Roman,serif" font-size="14.00">2,1,3: 2</text>
</g>
<!-- 2,3,7&#45;&gt;2,1,3 -->
<g id="edge4" class="edge"><title>2,3,7&#45;&gt;2,1,3</title>
<path fill="none" stroke="black" d="M139.83,-218.377C123.109,-207.999 100.96,-194.251 82.7202,-182.93"/>
<polygon fill="black" stroke="black" points="84.4634,-179.892 74.1212,-177.592 80.7718,-185.84 84.4634,-179.892"/>
</g>
<!-- 2,4,5 -->
<g id="node4" class="node"><title>2,4,5</title>
<ellipse fill="none" stroke="black" cx="165" cy="-162" rx="48.8383" ry="18"/>
<text text-anchor="middle" x="165" y="-157.9" font-family="Times Roman,serif" font-size="14.00">2,4,5: 2</text>
</g>
<!-- 2,3,7&#45;&gt;2,4,5 -->
<g id="edge6" class="edge"><title>2,3,7&#45;&gt;2,4,5</title>
<path fill="none" stroke="black" d="M165,-215.831C165,-208.131 165,-198.974 165,-190.417"/>
<polygon fill="black" stroke="black" points="168.5,-190.413 165,-180.413 161.5,-190.413 168.5,-190.413"/>
</g>
<!-- 1,4,4 -->
<g id="node5" class="node"><title>1,4,4</title>
<ellipse fill="none" stroke="black" cx="49" cy="-90" rx="48.8383" ry="18"/>
<text text-anchor="middle" x="49" y="-85.9" font-family="Times Roman,serif" font-size="14.00">1,4,4: 0</text>
</g>
<!-- 2,4,5&#45;&gt;1,4,4 -->
<g id="edge8" class="edge"><title>2,4,5&#45;&gt;1,4,4</title>
<path fill="none" stroke="black" d="M139.83,-146.377C123.109,-135.999 100.96,-122.251 82.7202,-110.93"/>
<polygon fill="black" stroke="black" points="84.4634,-107.892 74.1212,-105.592 80.7718,-113.84 84.4634,-107.892"/>
</g>
<!-- 0,5,7 -->
<g id="node6" class="node"><title>0,5,7</title>
<ellipse fill="none" stroke="black" cx="165" cy="-90" rx="48.8383" ry="18"/>
<text text-anchor="middle" x="165" y="-85.9" font-family="Times Roman,serif" font-size="14.00">0,5,7: 0</text>
</g>
<!-- 2,4,5&#45;&gt;0,5,7 -->
<g id="edge10" class="edge"><title>2,4,5&#45;&gt;0,5,7</title>
<path fill="none" stroke="black" d="M165,-143.831C165,-136.131 165,-126.974 165,-118.417"/>
<polygon fill="black" stroke="black" points="168.5,-118.413 165,-108.413 161.5,-118.413 168.5,-118.413"/>
</g>
<!-- 6,1,4 -->
<g id="node8" class="node"><title>6,1,4</title>
<ellipse fill="none" stroke="black" cx="281" cy="-162" rx="48.8383" ry="18"/>
<text text-anchor="middle" x="281" y="-157.9" font-family="Times Roman,serif" font-size="14.00">6,1,4: 2</text>
</g>
<!-- 4,3,4&#45;&gt;6,1,4 -->
<g id="edge14" class="edge"><title>4,3,4&#45;&gt;6,1,4</title>
<path fill="none" stroke="black" d="M281,-215.831C281,-208.131 281,-198.974 281,-190.417"/>
<polygon fill="black" stroke="black" points="284.5,-190.413 281,-180.413 277.5,-190.413 284.5,-190.413"/>
</g>
<!-- 5,2,5 -->
<g id="node9" class="node"><title>5,2,5</title>
<ellipse fill="none" stroke="black" cx="281" cy="-90" rx="48.8383" ry="18"/>
<text text-anchor="middle" x="281" y="-85.9" font-family="Times Roman,serif" font-size="14.00">5,2,5: 0</text>
</g>
<!-- 6,1,4&#45;&gt;5,2,5 -->
<g id="edge16" class="edge"><title>6,1,4&#45;&gt;5,2,5</title>
<path fill="none" stroke="black" d="M281,-143.831C281,-136.131 281,-126.974 281,-118.417"/>
<polygon fill="black" stroke="black" points="284.5,-118.413 281,-108.413 277.5,-118.413 284.5,-118.413"/>
</g>
<!-- 4,0,6 -->
<g id="node10" class="node"><title>4,0,6</title>
<ellipse fill="none" stroke="black" cx="223" cy="-18" rx="48.8383" ry="18"/>
<text text-anchor="middle" x="223" y="-13.9" font-family="Times Roman,serif" font-size="14.00">4,0,6: 1</text>
</g>
<!-- 5,2,5&#45;&gt;4,0,6 -->
<g id="edge18" class="edge"><title>5,2,5&#45;&gt;4,0,6</title>
<path fill="none" stroke="black" d="M266.96,-72.5708C259.836,-63.7269 251.053,-52.8239 243.215,-43.0945"/>
<polygon fill="black" stroke="black" points="245.91,-40.8606 236.911,-35.2687 240.459,-45.2519 245.91,-40.8606"/>
</g>
<!-- 7,1,6 -->
<g id="node11" class="node"><title>7,1,6</title>
<ellipse fill="none" stroke="black" cx="339" cy="-18" rx="48.8383" ry="18"/>
<text text-anchor="middle" x="339" y="-13.9" font-family="Times Roman,serif" font-size="14.00">7,1,6: 1</text>
</g>
<!-- 5,2,5&#45;&gt;7,1,6 -->
<g id="edge20" class="edge"><title>5,2,5&#45;&gt;7,1,6</title>
<path fill="none" stroke="black" d="M295.04,-72.5708C302.164,-63.7269 310.947,-52.8239 318.785,-43.0945"/>
<polygon fill="black" stroke="black" points="321.541,-45.2519 325.089,-35.2687 316.09,-40.8606 321.541,-45.2519"/>
</g>
</g>
</svg>
